<svg width="100" height="31" viewBox="0 0 100 31" fill="none" xmlns="http://www.w3.org/2000/svg">
<g clip-path="url(#clip0_1_339)">
<g opacity="0.4">
<path d="M40.6426 27.4937H38.4933V18.9766H40.6426V27.4937Z" fill="black"/>
<path d="M57.9729 21.4172C57.4181 21.1162 56.7964 20.9593 56.1651 20.9614C55.8584 20.9445 55.5516 20.9912 55.2637 21.0985C54.9759 21.2056 54.7132 21.371 54.4923 21.5843C54.2713 21.7976 54.0968 22.0544 53.9796 22.3383C53.8625 22.6222 53.8053 22.9272 53.8115 23.2343C53.8051 23.5415 53.8621 23.8466 53.9791 24.1307C54.0961 24.4147 54.2706 24.6716 54.4916 24.8851C54.7126 25.0985 54.9753 25.2641 55.2633 25.3712C55.5513 25.4785 55.8584 25.525 56.1651 25.508C56.7959 25.5094 57.4171 25.3538 57.9729 25.0556V27.3415C57.3381 27.5361 56.6784 27.638 56.0144 27.6442C55.4219 27.6716 54.8301 27.5772 54.2755 27.367C53.7209 27.1566 53.2154 26.8348 52.7901 26.4214C52.3647 26.0081 52.0286 25.5122 51.8024 24.9639C51.5762 24.4156 51.4649 23.8267 51.4751 23.2336C51.4654 22.6409 51.5772 22.0523 51.8036 21.5044C52.0301 20.9565 52.3663 20.461 52.7916 20.048C53.2169 19.635 53.7223 19.3137 54.2765 19.1035C54.8308 18.8933 55.4223 18.7987 56.0144 18.8258C56.6791 18.8277 57.3395 18.9307 57.9729 19.1321V21.4172ZM35.5394 21.4172C34.9855 21.1156 34.3644 20.9589 33.7336 20.9621C33.4267 20.9447 33.1195 20.9912 32.8313 21.0981C32.543 21.205 32.28 21.3702 32.0587 21.5836C31.8372 21.797 31.6624 22.0538 31.5449 22.338C31.4276 22.6222 31.3702 22.9276 31.3765 23.235C31.3701 23.5425 31.4274 23.8481 31.5447 24.1324C31.6619 24.4167 31.8367 24.6736 32.058 24.8872C32.2794 25.1006 32.5426 25.266 32.8309 25.373C33.1193 25.48 33.4266 25.5262 33.7336 25.5087C34.3639 25.5108 34.9846 25.3552 35.5394 25.0563V27.3422C34.904 27.5378 34.2435 27.6397 33.5787 27.6449C32.9864 27.6723 32.3948 27.578 31.8404 27.3676C31.2861 27.1573 30.7809 26.8355 30.3558 26.4221C29.9309 26.0086 29.5952 25.5125 29.3695 24.9642C29.1438 24.416 29.0329 23.8272 29.0437 23.2343C29.0339 22.6419 29.1455 22.0538 29.3716 21.5062C29.5978 20.9585 29.9337 20.4629 30.3587 20.05C30.7836 19.6372 31.2886 19.3159 31.8426 19.1055C32.3964 18.8952 32.9875 18.8005 33.5794 18.8272C34.2445 18.828 34.9055 18.9307 35.5394 19.1321V21.4172ZM64.7344 20.9942C64.4402 20.9914 64.1484 21.0476 63.8763 21.1595C63.6042 21.2714 63.3573 21.4367 63.1501 21.6457C62.943 21.8545 62.7799 22.1027 62.6703 22.3757C62.5607 22.6486 62.507 22.941 62.5123 23.235C62.5067 23.5293 62.5603 23.8215 62.6697 24.0947C62.7791 24.368 62.9422 24.6167 63.1494 24.8257C63.3566 25.0349 63.6036 25.2003 63.8759 25.3123C64.1481 25.4243 64.44 25.4807 64.7344 25.478C65.0288 25.4807 65.3207 25.4243 65.5929 25.3123C65.8651 25.2003 66.1122 25.0349 66.3194 24.8257C66.5267 24.6167 66.69 24.3683 66.7997 24.0951C66.9094 23.8219 66.9632 23.5294 66.958 23.235C66.9625 22.9406 66.9079 22.6482 66.7975 22.3753C66.6871 22.1023 66.5231 21.8542 66.3151 21.6457C66.1079 21.4368 65.861 21.2717 65.5889 21.1598C65.3168 21.048 65.0251 20.9915 64.7309 20.9942H64.7344ZM69.2309 23.2343C69.2363 23.8226 69.1229 24.4061 68.8976 24.9496C68.6722 25.493 68.3396 25.9855 67.9194 26.3973C67.4993 26.8092 67.0004 27.1322 66.4524 27.3467C65.9046 27.5612 65.319 27.6627 64.7309 27.6456C64.1428 27.6628 63.5572 27.5615 63.0093 27.347C62.4614 27.1326 61.9624 26.8098 61.5422 26.398C61.122 25.9861 60.7892 25.4935 60.5639 24.95C60.3386 24.4063 60.2253 23.8227 60.2308 23.2343C60.2258 22.6462 60.3394 22.063 60.565 21.5197C60.7906 20.9765 61.1235 20.4846 61.5437 20.073C61.9639 19.6615 62.4627 19.3387 63.0105 19.1244C63.5582 18.9101 64.1436 18.8086 64.7316 18.8258C65.3194 18.8089 65.9046 18.9107 66.4522 19.1251C66.9999 19.3395 67.4986 19.6622 67.9186 20.0737C68.3387 20.4853 68.6714 20.977 68.897 21.5201C69.1226 22.0632 69.2356 22.6463 69.2309 23.2343ZM48.7901 20.9129C48.242 20.7619 47.6783 20.675 47.1101 20.6537C46.2487 20.6537 45.7809 20.9392 45.7809 21.3513C45.7809 21.8706 46.4123 22.0515 46.7659 22.1629L47.3586 22.3516C47.9217 22.4706 48.4284 22.7758 48.7968 23.218C49.1651 23.6601 49.3739 24.2132 49.3894 24.7885C49.3894 26.9313 47.508 27.6456 45.863 27.6456C45.0844 27.6384 44.3081 27.5607 43.5436 27.413V25.4515C44.2038 25.6435 44.8858 25.7499 45.5729 25.7685C46.6444 25.7685 47.1336 25.4558 47.1336 24.9737C47.1336 24.5451 46.7051 24.293 46.1751 24.1258C46.0459 24.0822 45.8494 24.0215 45.7165 23.9772C44.5194 23.5987 43.5215 22.8949 43.5215 21.4856C43.5215 19.8927 44.7144 18.823 46.6951 18.823C47.4016 18.8326 48.1045 18.9234 48.7901 19.0937V20.9115V20.9129Z" fill="black"/>
<path d="M26.7632 9.82367C26.7624 9.54132 26.6496 9.27067 26.4495 9.07139C26.2494 8.8721 25.9784 8.7606 25.696 8.76096C25.4138 8.76082 25.143 8.87232 24.943 9.07139C24.743 9.27046 24.63 9.54075 24.6289 9.82296V12.0593C24.6367 12.3375 24.7524 12.6019 24.9516 12.7962C25.1507 12.9907 25.4177 13.0997 25.696 13.1007C25.9746 13.1008 26.2422 12.992 26.4416 12.7973C26.6411 12.6027 26.7565 12.3379 26.7632 12.0593V9.82367ZM32.6239 6.88947C32.6239 6.60645 32.5114 6.33485 32.3113 6.13472C32.1112 5.9346 31.8398 5.82222 31.5567 5.82222C31.2737 5.82222 31.0023 5.9346 30.8021 6.13472C30.602 6.33485 30.4896 6.60645 30.4896 6.88947V12.0593C30.4896 12.3423 30.602 12.614 30.8021 12.814C31.0023 13.0142 31.2737 13.1265 31.5567 13.1265C31.8398 13.1265 32.1112 13.0142 32.3113 12.814C32.5114 12.614 32.6239 12.3423 32.6239 12.0593V6.88947ZM38.4854 2.8737C38.4846 2.59137 38.3719 2.32078 38.1719 2.1214C37.9721 1.92202 37.7012 1.8103 37.4189 1.8103C37.1363 1.81011 36.8651 1.92185 36.6651 2.1214C36.465 2.32095 36.3524 2.59182 36.3518 2.8744V14.1837C36.3586 14.4621 36.4741 14.7269 36.6735 14.9213C36.8729 15.1158 37.1404 15.2245 37.4189 15.2245C37.6974 15.2245 37.9649 15.1158 38.1643 14.9213C38.3636 14.7269 38.4791 14.4621 38.486 14.1837L38.4854 2.8737ZM44.3461 6.88947C44.3461 6.60645 44.2336 6.33485 44.0335 6.13472C43.8334 5.9346 43.5619 5.82222 43.2789 5.82222C42.9959 5.82222 42.7244 5.9346 42.5243 6.13472C42.3241 6.33485 42.2117 6.60645 42.2117 6.88947V12.0593C42.2117 12.3423 42.3241 12.614 42.5243 12.814C42.7244 13.0142 42.9959 13.1265 43.2789 13.1265C43.5619 13.1265 43.8334 13.0142 44.0335 12.814C44.2336 12.614 44.3461 12.3423 44.3461 12.0593V6.88947ZM50.2031 9.82367C50.2034 9.5421 50.0917 9.2721 49.8929 9.07282C49.6939 8.87346 49.424 8.76139 49.1424 8.76096C48.8601 8.76039 48.5891 8.87189 48.389 9.07103C48.1889 9.27025 48.0761 9.54067 48.0753 9.82296V12.0593C48.0753 12.3414 48.1874 12.6122 48.3869 12.8116C48.5863 13.0111 48.8568 13.1231 49.1389 13.1231C49.4204 13.1221 49.69 13.0096 49.8886 12.8102C50.0874 12.6109 50.1989 12.3408 50.1989 12.0593L50.2031 9.82367ZM56.0668 6.88947C56.0599 6.61193 55.9448 6.34815 55.7461 6.15426C55.5474 5.96037 55.2808 5.85162 55.0032 5.85152C54.7256 5.85162 54.4589 5.96037 54.2603 6.15426C54.0616 6.34815 53.9465 6.61193 53.9396 6.88947V12.0593C53.9396 12.3414 54.0516 12.6122 54.2511 12.8116C54.4506 13.0111 54.7211 13.1231 55.0032 13.1231C55.2853 13.1231 55.5558 13.0111 55.7552 12.8116C55.9547 12.6122 56.0668 12.3414 56.0668 12.0593V6.88947ZM61.9318 2.8737C61.9316 2.59175 61.8194 2.3214 61.6199 2.1221C61.4205 1.9228 61.1501 1.811 60.8682 1.811C60.5862 1.811 60.3158 1.9228 60.1164 2.1221C59.9169 2.3214 59.8048 2.59175 59.8046 2.8737V14.1837C59.7961 14.3757 59.8399 14.5663 59.931 14.7355C60.0222 14.9046 60.1574 15.0461 60.3224 15.1445C60.4875 15.2429 60.6761 15.2945 60.8682 15.2945C61.0603 15.2945 61.2489 15.2429 61.4139 15.1445C61.579 15.046 61.7144 14.9044 61.8055 14.7351C61.8967 14.5658 61.9404 14.3751 61.9318 14.183V2.8737ZM67.7954 6.88947C67.7949 6.74862 67.7666 6.60923 67.7121 6.47932C67.6577 6.3494 67.5782 6.23145 67.4781 6.13229C67.3779 6.03346 67.2593 5.95539 67.1289 5.90245C66.9984 5.8495 66.8589 5.82262 66.7182 5.82362C66.4361 5.82381 66.1655 5.9362 65.9661 6.13577C65.7666 6.33535 65.6546 6.60593 65.6546 6.88807V12.0586C65.6542 12.1986 65.6815 12.3372 65.7348 12.4667C65.7881 12.5961 65.8664 12.7139 65.9653 12.813C66.1649 13.013 66.4357 13.1255 66.7182 13.1259C66.8591 13.1271 66.9989 13.1005 67.1295 13.0474C67.2601 12.9943 67.3788 12.9157 67.4789 12.8165C67.5791 12.7174 67.6586 12.5995 67.713 12.4695C67.7673 12.3394 67.7953 12.1996 67.7954 12.0586V6.88807V6.88947ZM73.6481 9.82367C73.6481 9.54125 73.5359 9.27039 73.3362 9.07067C73.1365 8.87096 72.8656 8.75853 72.5832 8.75853C72.3007 8.75853 72.0299 8.87096 71.8301 9.07067C71.6304 9.27039 71.5181 9.54125 71.5181 9.82367V12.0593C71.5179 12.1994 71.5452 12.3382 71.5986 12.4677C71.652 12.5972 71.7304 12.7149 71.8293 12.814C71.9282 12.9132 72.0457 12.9919 72.1751 13.0457C72.3044 13.0994 72.4431 13.1272 72.5832 13.1272C72.7231 13.1271 72.8616 13.0994 72.9909 13.0457C73.1201 12.9919 73.2375 12.9132 73.3363 12.814C73.4351 12.715 73.5135 12.5975 73.5669 12.4681C73.6203 12.3387 73.6476 12.2 73.6474 12.06V9.82439L73.6481 9.82367Z" fill="black"/>
<path d="M72.4161 26.3723V26.5059H72.0361V27.494H71.8797V26.5066H71.4984V26.3723H72.4161ZM72.4955 26.3723H72.7397L73.0753 27.2924H73.0811L73.4061 26.373H73.6461V27.494H73.4861V26.5746H73.4804L73.1404 27.494H72.9926L72.6604 26.5746H72.6533V27.494H72.4968L72.4955 26.3723Z" fill="black"/>
</g>
</g>
<defs>
<clipPath id="clip0_1_339">
<rect width="100" height="30" fill="white" transform="translate(0 0.75)"/>
</clipPath>
</defs>
</svg>
