<svg width="100" height="31" viewBox="0 0 100 31" fill="none" xmlns="http://www.w3.org/2000/svg">
<g clip-path="url(#clip0_1_372)">
<g clip-path="url(#clip1_1_372)">
<g clip-path="url(#clip2_1_372)">
<mask id="mask0_1_372" style="mask-type:luminance" maskUnits="userSpaceOnUse" x="0" y="0" width="99" height="31">
<path d="M98.9 0.75H0.5V30.262H98.9V0.75Z" fill="white"/>
</mask>
<g mask="url(#mask0_1_372)">
<g opacity="0.4">
<path d="M15.257 0.75C12.3385 0.750198 9.48572 1.61579 7.05924 3.23732C4.63276 4.85885 2.7416 7.16349 1.62491 9.85982C0.508213 12.5561 0.216138 15.523 0.785614 18.3854C1.35509 21.2477 2.76054 23.8769 4.82425 25.9404C6.88795 28.004 9.51722 29.4093 12.3796 29.9785C15.2419 30.5478 18.2088 30.2555 20.9051 29.1387C23.6013 28.0218 25.9058 26.1305 27.5272 23.7039C29.1486 21.2773 30.014 18.4244 30.014 15.506C30.014 13.5681 29.6323 11.6492 28.8906 9.85889C28.149 8.06855 27.062 6.44181 25.6917 5.07158C24.3213 3.70134 22.6945 2.61445 20.9041 1.87295C19.1137 1.13145 17.1948 0.749869 15.257 0.75ZM22.024 22.032C21.9606 22.1348 21.8777 22.2241 21.7798 22.2948C21.6819 22.3655 21.5711 22.4163 21.4536 22.4441C21.3361 22.472 21.2143 22.4764 21.0951 22.4572C20.9759 22.4379 20.8617 22.3954 20.759 22.332C17.294 20.216 12.933 19.732 7.79596 20.91C7.55806 20.9642 7.30836 20.9217 7.10179 20.7919C6.89522 20.662 6.7487 20.4554 6.69446 20.2175C6.64022 19.9796 6.68271 19.7299 6.81258 19.5233C6.94245 19.3168 7.14906 19.1702 7.38696 19.116C13.008 17.832 17.83 18.385 21.719 20.762C21.8227 20.825 21.913 20.908 21.9846 21.0061C22.0561 21.1041 22.1076 21.2154 22.1359 21.3335C22.1643 21.4515 22.169 21.574 22.1498 21.6939C22.1306 21.8138 22.0878 21.9287 22.024 22.032ZM23.83 18.014C23.6705 18.2741 23.4142 18.4602 23.1176 18.5314C22.821 18.6027 22.5082 18.5532 22.248 18.394C17.769 15.8969 12.4826 15.278 7.54796 16.673C7.25622 16.7622 6.94098 16.7319 6.67158 16.5888C6.40219 16.4456 6.20071 16.2012 6.11146 15.9095C6.02221 15.6178 6.05252 15.3025 6.1957 15.0331C6.33888 14.7637 6.58322 14.5622 6.87496 14.473C9.62881 13.6802 12.5132 13.4452 15.3591 13.7818C18.205 14.1183 20.955 15.0197 23.448 16.433C23.5767 16.512 23.6887 16.6155 23.7775 16.7378C23.8662 16.86 23.93 16.9986 23.9652 17.1455C24.0004 17.2924 24.0063 17.4448 23.9826 17.594C23.9589 17.7432 23.906 17.8862 23.827 18.015L23.83 18.014ZM23.985 13.83C19.229 11.005 11.385 10.745 6.84196 12.124C6.66745 12.1805 6.48344 12.2016 6.30067 12.1861C6.11791 12.1707 5.94006 12.1189 5.77752 12.0339C5.61499 11.949 5.47102 11.8324 5.35405 11.6911C5.23708 11.5499 5.14945 11.3867 5.09627 11.2111C5.0431 11.0356 5.02545 10.8512 5.04436 10.6688C5.06327 10.4863 5.11837 10.3095 5.20642 10.1486C5.29447 9.98768 5.41371 9.84595 5.55717 9.73167C5.70064 9.61738 5.86545 9.53285 6.04196 9.483C11.254 7.901 19.919 8.206 25.395 11.457C25.5508 11.5494 25.687 11.6717 25.7956 11.8168C25.9043 11.9618 25.9832 12.1269 26.0281 12.3025C26.0729 12.4781 26.0828 12.6608 26.057 12.8402C26.0313 13.0196 25.9704 13.1921 25.878 13.348C25.7855 13.5039 25.6633 13.64 25.5182 13.7487C25.3731 13.8573 25.2081 13.9363 25.0325 13.9811C24.8569 14.026 24.6742 14.0358 24.4948 14.0101C24.3154 13.9843 24.1428 13.9234 23.987 13.831L23.985 13.83ZM40.648 14.373C38.1 13.765 37.648 13.339 37.648 12.443C37.648 11.596 38.448 11.027 39.63 11.027C40.9047 11.0725 42.1287 11.5376 43.112 12.35C43.1298 12.3632 43.1502 12.3727 43.1717 12.378C43.1933 12.3833 43.2157 12.3842 43.2377 12.3808C43.2596 12.3773 43.2807 12.3696 43.2996 12.3579C43.3185 12.3463 43.335 12.331 43.348 12.313L44.592 10.559C44.6166 10.5242 44.627 10.4813 44.6211 10.4391C44.6151 10.3969 44.5933 10.3586 44.56 10.332C43.1814 9.20437 41.4477 8.60203 39.667 8.632C36.916 8.632 34.994 10.283 34.994 12.645C34.994 15.178 36.652 16.075 39.517 16.767C41.954 17.329 42.366 17.799 42.366 18.64C42.366 19.572 41.534 20.152 40.195 20.152C38.6762 20.1403 37.2213 19.5394 36.137 18.476C36.1031 18.4472 36.0594 18.4325 36.015 18.435C35.9929 18.4365 35.9713 18.4424 35.9516 18.4523C35.9318 18.4623 35.9143 18.4761 35.9 18.493L34.5 20.153C34.4719 20.1863 34.4579 20.2293 34.4608 20.2727C34.4638 20.3162 34.4836 20.3568 34.516 20.386C36.0542 21.7798 38.0582 22.5477 40.134 22.539C43.098 22.539 45.013 20.92 45.013 18.412C45.018 16.296 43.751 15.124 40.648 14.37H40.643L40.648 14.373ZM51.724 11.86C51.1062 11.8519 50.4951 11.987 49.9383 12.2547C49.3815 12.5224 48.8944 12.9155 48.515 13.403V12.235C48.5151 12.2131 48.5109 12.1914 48.5026 12.1712C48.4943 12.1509 48.4821 12.1325 48.4667 12.117C48.4513 12.1015 48.4329 12.0891 48.4127 12.0807C48.3925 12.0723 48.3708 12.068 48.349 12.068H46.068C46.0461 12.068 46.0244 12.0723 46.0042 12.0807C45.984 12.0891 45.9657 12.1015 45.9502 12.117C45.9348 12.1325 45.9226 12.1509 45.9143 12.1712C45.906 12.1914 45.9018 12.2131 45.902 12.235V25.204C45.902 25.2481 45.9194 25.2904 45.9505 25.3217C45.9816 25.353 46.0238 25.3707 46.068 25.371H48.348C48.3921 25.3707 48.4343 25.353 48.4654 25.3217C48.4965 25.2904 48.514 25.2481 48.514 25.204V21.111C48.9074 21.5763 49.3995 21.948 49.9546 22.1992C50.5097 22.4503 51.1138 22.5746 51.723 22.563C54.111 22.563 56.528 20.725 56.528 17.212C56.528 13.699 54.114 11.859 51.728 11.859L51.724 11.86ZM53.876 17.212C53.9159 17.5908 53.8768 17.9737 53.761 18.3365C53.6452 18.6993 53.4553 19.0342 53.2034 19.3198C52.9514 19.6054 52.6429 19.8355 52.2974 19.9957C51.9518 20.1558 51.5767 20.2424 51.196 20.25C50.8143 20.2378 50.439 20.1486 50.0926 19.9878C49.7462 19.8269 49.4359 19.5978 49.1803 19.314C48.9247 19.0303 48.729 18.6979 48.6051 18.3366C48.4811 17.9754 48.4314 17.5929 48.459 17.212C48.4313 16.831 48.4809 16.4484 48.6048 16.087C48.7287 15.7257 48.9243 15.3931 49.1799 15.1093C49.4356 14.8255 49.7459 14.5962 50.0923 14.4353C50.4388 14.2744 50.8142 14.1852 51.196 14.173C51.5752 14.185 51.948 14.2745 52.2914 14.436C52.6347 14.5976 52.9414 14.8277 53.1924 15.1122C53.4435 15.3967 53.6337 15.7296 53.7512 16.0904C53.8688 16.4512 53.9112 16.8322 53.876 17.21V17.212ZM62.723 11.86C61.6663 11.8799 60.6391 12.2116 59.7703 12.8133C58.9015 13.415 58.2299 14.2601 57.8398 15.2422C57.4496 16.2244 57.3584 17.3 57.5775 18.3339C57.7966 19.3677 58.3162 20.3138 59.0712 21.0533C59.8262 21.7928 60.7829 22.2928 61.821 22.4904C62.8592 22.6881 63.9327 22.5746 64.9066 22.1642C65.8805 21.7538 66.7114 21.0648 67.295 20.1837C67.8786 19.3027 68.1889 18.2688 68.187 17.212C68.1833 16.5007 68.0387 15.7972 67.7615 15.1422C67.4842 14.4872 67.0798 13.8936 66.5717 13.3959C66.0635 12.8982 65.4617 12.5062 64.8011 12.2425C64.1405 11.9789 63.4342 11.8489 62.723 11.86ZM62.723 20.268C62.3312 20.2644 61.9443 20.1814 61.5856 20.0242C61.2268 19.8669 60.9036 19.6386 60.6355 19.353C60.3674 19.0674 60.1599 18.7305 60.0256 18.3625C59.8912 17.9945 59.8329 17.6032 59.854 17.212C59.8286 16.8247 59.8831 16.4364 60.014 16.0711C60.1449 15.7057 60.3495 15.3711 60.615 15.0881C60.8805 14.805 61.2013 14.5795 61.5576 14.4256C61.9138 14.2716 62.2979 14.1924 62.686 14.193C63.0788 14.1957 63.467 14.278 63.8271 14.4348C64.1873 14.5916 64.512 14.8196 64.7817 15.1053C65.0514 15.3909 65.2604 15.7282 65.3962 16.0968C65.532 16.4654 65.5918 16.8577 65.572 17.25C65.5964 17.6384 65.5407 18.0277 65.4083 18.3937C65.276 18.7597 65.0699 19.0946 64.8027 19.3776C64.5356 19.6606 64.2131 19.8856 63.8553 20.0388C63.4976 20.192 63.1121 20.27 62.723 20.268ZM74.753 12.068H72.242V9.501C72.2421 9.47912 72.2379 9.45742 72.2296 9.43717C72.2213 9.41691 72.2091 9.39849 72.1937 9.38297C72.1783 9.36745 72.1599 9.35513 72.1397 9.34673C72.1195 9.33833 72.0978 9.334 72.076 9.334H69.795C69.7507 9.33426 69.7084 9.35194 69.6772 9.3832C69.6459 9.41446 69.6282 9.45679 69.628 9.501V12.068H68.528C68.5061 12.068 68.4844 12.0723 68.4642 12.0807C68.444 12.0891 68.4257 12.1015 68.4102 12.117C68.3948 12.1325 68.3826 12.1509 68.3743 12.1712C68.366 12.1914 68.3618 12.2131 68.362 12.235V14.196C68.362 14.2401 68.3794 14.2824 68.4105 14.3137C68.4416 14.345 68.4838 14.3627 68.528 14.363H69.628V19.437C69.628 21.486 70.648 22.526 72.662 22.526C73.4088 22.5439 74.1467 22.3601 74.798 21.994C74.8238 21.9799 74.8454 21.9591 74.8603 21.9337C74.8753 21.9084 74.8831 21.8794 74.883 21.85V19.981C74.8829 19.9527 74.8756 19.9249 74.8618 19.9002C74.848 19.8756 74.8281 19.8548 74.804 19.84C74.78 19.8247 74.7523 19.816 74.7239 19.8148C74.6955 19.8135 74.6672 19.8198 74.642 19.833C74.2282 20.047 73.7688 20.1575 73.303 20.155C72.572 20.155 72.244 19.822 72.244 19.078V14.364H74.755C74.7768 14.364 74.7985 14.3597 74.8187 14.3513C74.8389 14.3429 74.8573 14.3305 74.8727 14.315C74.8881 14.2995 74.9003 14.2811 74.9086 14.2608C74.9169 14.2406 74.9211 14.2189 74.921 14.197V12.237C74.9216 12.2151 74.9179 12.1934 74.9099 12.173C74.902 12.1526 74.89 12.1341 74.8746 12.1185C74.8593 12.1029 74.841 12.0905 74.8208 12.0822C74.8005 12.0739 74.7788 12.0697 74.757 12.07L74.753 12.068ZM83.5 12.078V11.763C83.5 10.836 83.856 10.422 84.652 10.422C85.091 10.4272 85.5259 10.5073 85.938 10.659C85.9631 10.6675 85.9898 10.6698 86.016 10.6658C86.0422 10.6618 86.0671 10.6516 86.0885 10.636C86.1099 10.6205 86.1273 10.6 86.1393 10.5763C86.1512 10.5527 86.1572 10.5265 86.157 10.5V8.573C86.1574 8.53713 86.1461 8.5021 86.1248 8.47323C86.1035 8.44436 86.0733 8.42322 86.039 8.413C85.4234 8.22505 84.7825 8.1333 84.139 8.141C82.033 8.141 80.918 9.328 80.918 11.571V12.054H79.818C79.7738 12.0543 79.7314 12.0719 79.7002 12.1032C79.6689 12.1345 79.6512 12.1768 79.651 12.221V14.192C79.6512 14.2362 79.6689 14.2785 79.7002 14.3098C79.7314 14.3411 79.7738 14.3587 79.818 14.359H80.918V22.184C80.918 22.2283 80.9356 22.2708 80.9669 22.3021C80.9982 22.3334 81.0407 22.351 81.085 22.351H83.365C83.3869 22.3511 83.4087 22.3469 83.429 22.3386C83.4494 22.3302 83.4678 22.3179 83.4833 22.3024C83.4989 22.2868 83.5112 22.2684 83.5195 22.2481C83.5279 22.2277 83.5321 22.206 83.532 22.184V14.364H85.662L88.925 22.188C88.555 23.009 88.19 23.173 87.693 23.173C87.2501 23.162 86.8173 23.0388 86.435 22.815C86.394 22.7945 86.3469 22.7903 86.303 22.803C86.2809 22.8102 86.2607 22.8219 86.2434 22.8374C86.2262 22.8529 86.2124 22.8718 86.203 22.893L85.429 24.593C85.4111 24.6315 85.4086 24.6754 85.422 24.7158C85.4354 24.7561 85.4636 24.7898 85.501 24.81C86.2428 25.2306 87.0833 25.446 87.936 25.434C89.621 25.434 90.553 24.648 91.372 22.534L95.338 12.306C95.3478 12.2809 95.3514 12.2537 95.3485 12.2269C95.3456 12.2001 95.3362 12.1743 95.3212 12.1519C95.3061 12.1295 95.2859 12.1111 95.2622 12.0982C95.2384 12.0853 95.212 12.0784 95.185 12.078H92.809C92.7741 12.0777 92.74 12.0884 92.7115 12.1085C92.683 12.1286 92.6615 12.1571 92.65 12.19L90.217 19.139L87.548 12.186C87.536 12.1546 87.5148 12.1275 87.4871 12.1084C87.4594 12.0893 87.4266 12.079 87.393 12.079H83.493L83.5 12.078ZM78.429 12.068H76.148C76.1038 12.0683 76.0614 12.0859 76.0302 12.1172C75.9989 12.1485 75.9812 12.1908 75.981 12.235V22.187C75.981 22.2089 75.9853 22.2306 75.9937 22.2509C76.0021 22.2712 76.0144 22.2896 76.0299 22.3051C76.0454 22.3206 76.0638 22.3329 76.0841 22.3413C76.1043 22.3497 76.126 22.354 76.148 22.354H78.43C78.4519 22.354 78.4736 22.3497 78.4939 22.3413C78.5141 22.3329 78.5325 22.3206 78.548 22.3051C78.5636 22.2896 78.5759 22.2712 78.5843 22.2509C78.5926 22.2306 78.597 22.2089 78.597 22.187V12.236C78.597 12.1917 78.5794 12.1492 78.548 12.1179C78.5167 12.0866 78.4743 12.069 78.43 12.069L78.429 12.068ZM77.301 7.536C76.9774 7.5358 76.661 7.63156 76.3919 7.81116C76.1227 7.99076 75.9129 8.24614 75.7889 8.54501C75.6649 8.84387 75.6323 9.1728 75.6952 9.49019C75.7581 9.80758 75.9138 10.0992 76.1424 10.3281C76.3711 10.5571 76.6625 10.713 76.9798 10.7764C77.2971 10.8397 77.6261 10.8075 77.9251 10.6839C78.2241 10.5602 78.4798 10.3507 78.6597 10.0817C78.8396 9.81281 78.9358 9.49657 78.936 9.173C78.9361 8.95816 78.8939 8.74539 78.8118 8.54685C78.7297 8.34831 78.6093 8.16789 78.4575 8.01588C78.3057 7.86387 78.1254 7.74325 77.927 7.66092C77.7285 7.57858 77.5158 7.53613 77.301 7.536ZM97.287 15.273C96.9689 15.2722 96.6582 15.1772 96.3941 15.0001C96.13 14.8229 95.9242 14.5715 95.8029 14.2775C95.6815 13.9835 95.6499 13.6602 95.712 13.3483C95.7742 13.0364 95.9274 12.7499 96.1522 12.5249C96.377 12.3 96.6634 12.1466 96.9753 12.0843C97.2871 12.0219 97.6105 12.0533 97.9045 12.1745C98.1986 12.2957 98.4501 12.5013 98.6275 12.7653C98.8048 13.0293 98.9 13.34 98.901 13.658C98.903 13.8706 98.8626 14.0814 98.7822 14.2782C98.7018 14.4749 98.583 14.6537 98.4328 14.8041C98.2825 14.9544 98.1038 15.0733 97.9071 15.1539C97.7103 15.2344 97.4995 15.2749 97.287 15.273ZM97.296 12.213C97.0084 12.2102 96.7265 12.293 96.4861 12.4509C96.2457 12.6087 96.0577 12.8345 95.9459 13.0995C95.8342 13.3645 95.8037 13.6567 95.8585 13.939C95.9133 14.2214 96.0508 14.481 96.2535 14.685C96.4562 14.889 96.715 15.0281 96.997 15.0846C97.279 15.1412 97.5714 15.1126 97.8371 15.0025C98.1027 14.8924 98.3297 14.7058 98.489 14.4664C98.6484 14.227 98.7329 13.9456 98.732 13.658C98.7332 13.4687 98.6969 13.281 98.6253 13.1057C98.5536 12.9304 98.448 12.7711 98.3146 12.6368C98.1811 12.5025 98.0224 12.3959 97.8476 12.3232C97.6728 12.2504 97.4853 12.213 97.296 12.213ZM97.652 13.823L98.107 14.459H97.723L97.314 13.876H96.963V14.459H96.642V12.773H97.393C97.786 12.773 98.043 12.973 98.043 13.311C98.0487 13.4285 98.0128 13.5442 97.9417 13.6378C97.8705 13.7315 97.7687 13.797 97.654 13.823H97.652ZM97.381 13.063H96.963V13.596H97.381C97.589 13.596 97.714 13.496 97.714 13.329C97.714 13.162 97.588 13.058 97.38 13.058L97.381 13.063Z" fill="black"/>
</g>
</g>
</g>
</g>
</g>
<defs>
<clipPath id="clip0_1_372">
<rect width="100" height="30" fill="white" transform="translate(0 0.75)"/>
</clipPath>
<clipPath id="clip1_1_372">
<rect width="100" height="30" fill="white" transform="translate(0 0.75)"/>
</clipPath>
<clipPath id="clip2_1_372">
<rect width="99" height="30" fill="white" transform="translate(0.5 0.75)"/>
</clipPath>
</defs>
</svg>
