<svg width="100" height="31" viewBox="0 0 100 31" fill="none" xmlns="http://www.w3.org/2000/svg">
<g clip-path="url(#clip0_1_363)">
<g clip-path="url(#clip1_1_363)">
<g clip-path="url(#clip2_1_363)">
<mask id="mask0_1_363" style="mask-type:luminance" maskUnits="userSpaceOnUse" x="0" y="0" width="99" height="31">
<path d="M98.9936 0.75H0.799988V30.564H98.9936V0.75Z" fill="white"/>
</mask>
<g mask="url(#mask0_1_363)">
<g opacity="0.4">
<path d="M0.799988 21.834V1.1868H4.42639V21.834H0.799988ZM13.7108 6.8556C12.6847 6.83248 11.6643 7.01492 10.7097 7.39218C9.7552 7.76945 8.88582 8.3339 8.15276 9.0523C7.4197 9.7707 6.83781 10.6285 6.44136 11.5753C6.04491 12.522 5.84191 13.5385 5.84431 14.5649C5.84671 15.5912 6.05446 16.6068 6.45535 17.5517C6.85623 18.4964 7.44213 19.3516 8.17854 20.0665C8.91494 20.7815 9.78697 21.3419 10.7433 21.7147C11.6996 22.0874 12.7208 22.2652 13.7468 22.2372C14.7647 22.2473 15.7747 22.0553 16.718 21.6721C17.6612 21.289 18.5189 20.7224 19.2416 20.0052C19.9641 19.2881 20.5372 18.4346 20.9275 17.4943C21.3178 16.554 21.5175 15.5456 21.5151 14.5276C21.5127 13.5095 21.3083 12.502 20.9137 11.5636C20.519 10.6251 19.9419 9.77437 19.2159 9.06061C18.49 8.34685 17.6295 7.78432 16.6845 7.4056C15.7395 7.02688 14.7287 6.84073 13.7108 6.8556ZM13.6688 10.35C14.6295 10.347 15.5615 10.677 16.3063 11.2838C17.051 11.8907 17.5624 12.7369 17.7533 13.6784C17.9444 14.62 17.8031 15.5986 17.3539 16.4477C16.9045 17.2968 16.1746 17.9639 15.2888 18.3354C14.4028 18.707 13.4155 18.7601 12.4949 18.4856C11.5742 18.2111 10.7772 17.626 10.2394 16.8299C9.70165 16.0339 9.45638 15.0761 9.5454 14.1194C9.6344 13.1629 10.0522 12.2668 10.7276 11.5836C11.507 10.8007 12.5641 10.3573 13.6688 10.35ZM30.6656 6.8556C29.6395 6.83248 28.6191 7.01492 27.6645 7.39218C26.71 7.76945 25.8406 8.3339 25.1075 9.0523C24.3745 9.7707 23.7926 10.6285 23.3961 11.5753C22.9997 12.522 22.7967 13.5385 22.7991 14.5649C22.8015 15.5912 23.0092 16.6068 23.4101 17.5517C23.8111 18.4964 24.3969 19.3516 25.1333 20.0665C25.8698 20.7815 26.7418 21.3419 27.6981 21.7147C28.6544 22.0874 29.6756 22.2652 30.7016 22.2372C31.7264 22.2622 32.7455 22.08 33.6982 21.7016C34.6509 21.3233 35.5173 20.7565 36.2457 20.0352C36.974 19.3139 37.5493 18.453 37.9369 17.504C38.3245 16.5552 38.5166 15.5377 38.5016 14.5128C38.6033 13.0988 38.1828 11.6966 37.3196 10.572L38.3252 10.2276V7.284H33.1808C32.3702 7.0031 31.5187 6.85835 30.6608 6.8556H30.6656ZM30.6236 10.35C31.5842 10.3475 32.516 10.678 33.2602 11.2852C34.0046 11.8923 34.5155 12.7387 34.7061 13.6802C34.8967 14.6216 34.7551 15.6001 34.3055 16.449C33.8559 17.2979 33.1259 17.9646 32.24 18.3359C31.3542 18.7072 30.3669 18.76 29.4464 18.4853C28.5259 18.2106 27.7291 17.6255 27.1915 16.8294C26.6539 16.0334 26.4087 15.0756 26.4979 14.1192C26.5869 13.1627 27.0046 12.2667 27.68 11.5836C28.46 10.8001 29.518 10.3567 30.6236 10.35ZM34.8236 22.8396C34.8236 23.9497 34.3826 25.0144 33.5977 25.7993C32.8127 26.5842 31.7481 27.0252 30.638 27.0252C29.5279 27.0252 28.4632 26.5842 27.6783 25.7993C26.8934 25.0144 26.4524 23.9497 26.4524 22.8396H22.772C22.7548 23.8741 22.949 24.9012 23.3428 25.858C23.7365 26.8147 24.3217 27.681 25.0621 28.4036C25.8025 29.1263 26.6827 29.6902 27.6487 30.0606C28.6147 30.431 29.6462 30.6002 30.68 30.558C31.7041 30.5842 32.723 30.4031 33.6754 30.0258C34.6279 29.6485 35.4943 29.0827 36.2228 28.3624C36.9512 27.642 37.5266 26.782 37.9144 25.8337C38.3024 24.8855 38.4947 23.8687 38.48 22.8444L34.8236 22.8396ZM39.962 21.8304V7.284H43.5896V21.834L39.962 21.8304ZM47.1104 21.8304V10.5432H45.1652V7.284H47.1104V2.8164H50.7368V7.284H52.7348V10.5432H50.7368V21.834L47.1104 21.8304ZM44.1692 3.15C44.1692 3.62467 44.0284 4.08869 43.7647 4.48337C43.501 4.87805 43.1261 5.18566 42.6877 5.36731C42.2491 5.54896 41.7666 5.59649 41.3009 5.50388C40.8355 5.41128 40.4078 5.1827 40.0721 4.84705C39.7365 4.51141 39.5079 4.08377 39.4153 3.61822C39.3228 3.15266 39.3703 2.67011 39.5518 2.23156C39.7335 1.79302 40.0412 1.41819 40.4359 1.15447C40.8305 0.890758 41.2945 0.75 41.7692 0.75C42.4057 0.75 43.0161 1.00286 43.4662 1.45294C43.9163 1.90303 44.1692 2.51348 44.1692 3.15ZM60.8888 6.846C59.8635 6.8252 58.8448 7.01399 57.895 7.40077C56.9452 7.78756 56.0845 8.36422 55.3654 9.09539C54.6464 9.82656 54.0842 10.6969 53.7134 11.653C53.3426 12.6091 53.1709 13.6308 53.2088 14.6556C53.1668 15.6782 53.3401 16.6984 53.7175 17.6498C54.0949 18.6013 54.668 19.4628 55.3996 20.1786C56.1313 20.8944 57.0051 21.4484 57.9645 21.805C58.924 22.1615 59.9476 22.3124 60.9692 22.248C62.2018 22.287 63.4285 22.0607 64.5661 21.5845C65.7038 21.1084 66.7258 20.3934 67.5632 19.488L65.1392 17.0604C64.0516 18.1996 62.5852 18.9019 61.016 19.0356C60.1059 19.0714 59.2118 18.7892 58.487 18.2377C57.7622 17.6862 57.2521 16.8995 57.044 16.0128H68.3456V15.0144C68.3456 11.0292 66.0392 6.8472 60.8948 6.8472L60.8888 6.846ZM60.7688 10.0392C61.6597 9.98797 62.5379 10.2695 63.2331 10.8291C63.9282 11.3888 64.3906 12.1867 64.5308 13.068H56.9348C57.1131 12.1905 57.5968 11.4046 58.2999 10.8501C59.003 10.2955 59.8798 10.0082 60.7748 10.0392H60.7688ZM77.4116 22.2492C76.3999 22.2503 75.3979 22.0519 74.4628 21.6658C73.5277 21.2795 72.6778 20.713 71.9618 19.9982C70.5155 18.555 69.7018 16.5962 69.6998 14.553C69.6978 12.5098 70.5074 10.5494 71.9508 9.10316C73.394 7.65692 75.3528 6.84326 77.396 6.8412C78.5839 6.83231 79.7588 7.08887 80.8348 7.59211C81.9109 8.09537 82.8609 8.83261 83.6156 9.75L81.08 12.27C80.627 11.7152 80.0637 11.2604 79.4258 10.9345C78.788 10.6085 78.0895 10.4185 77.3744 10.3764C76.8237 10.3627 76.2758 10.4607 75.764 10.6644C75.2521 10.8681 74.7868 11.1734 74.3961 11.5618C74.0055 11.9503 73.6975 12.4138 73.4908 12.9245C73.2842 13.4352 73.183 13.9824 73.1936 14.5332C73.1797 15.0853 73.2771 15.6344 73.48 16.1482C73.683 16.6618 73.9873 17.1293 74.3748 17.5228C74.7621 17.9162 75.2249 18.2278 75.7353 18.4386C76.2457 18.6494 76.7934 18.7553 77.3456 18.75C78.0659 18.7126 78.7706 18.5245 79.4138 18.1979C80.057 17.8714 80.6246 17.4136 81.08 16.854L83.636 19.374C82.8792 20.2884 81.9272 21.0217 80.8498 21.5201C79.7725 22.0184 78.5973 22.2692 77.4104 22.254L77.4116 22.2492ZM84.9572 21.8448V1.134H88.5836V8.7432C89.1291 8.11602 89.8088 7.61956 90.5721 7.29053C91.3354 6.96151 92.1631 6.80836 92.9936 6.8424C96.7916 6.8424 98.9936 9.666 98.9936 13.2768V21.8448H95.36V13.83C95.4145 13.3874 95.3716 12.9384 95.2346 12.5142C95.0974 12.0899 94.8693 11.7008 94.5661 11.3739C94.2628 11.047 93.8919 10.7903 93.4791 10.6218C93.0663 10.4532 92.6217 10.3768 92.1764 10.398C91.6921 10.3595 91.2052 10.4269 90.7496 10.5955C90.294 10.7641 89.8804 11.0299 89.5378 11.3744C89.1954 11.7189 88.9318 12.1339 88.7659 12.5905C88.5998 13.047 88.5351 13.5343 88.5764 14.0184V21.8508H84.9572V21.8448Z" fill="black"/>
</g>
</g>
</g>
</g>
</g>
<defs>
<clipPath id="clip0_1_363">
<rect width="100" height="30" fill="white" transform="translate(0 0.75)"/>
</clipPath>
<clipPath id="clip1_1_363">
<rect width="100" height="30" fill="white" transform="translate(0 0.75)"/>
</clipPath>
<clipPath id="clip2_1_363">
<rect width="98.4" height="30" fill="white" transform="translate(0.799988 0.75)"/>
</clipPath>
</defs>
</svg>
