<svg width="100" height="31" viewBox="0 0 100 31" fill="none" xmlns="http://www.w3.org/2000/svg">
<g clip-path="url(#clip0_1_347)">
<g clip-path="url(#clip1_1_347)">
<mask id="mask0_1_347" style="mask-type:luminance" maskUnits="userSpaceOnUse" x="0" y="5" width="100" height="21">
<path d="M99.6033 5.91382H0V25.3753H99.6033V5.91382Z" fill="white"/>
</mask>
<g mask="url(#mask0_1_347)">
<g opacity="0.4">
<path fill-rule="evenodd" clip-rule="evenodd" d="M3.03331 7.74573C3.7778 7.09887 4.64295 6.60577 5.57891 6.29486C6.51487 5.98395 7.50311 5.86139 8.48664 5.93423C9.47025 6.00707 10.4296 6.27389 11.3096 6.71928C12.1895 7.16468 12.9725 7.77985 13.6136 8.52933C14.9922 9.92338 15.7974 11.784 15.8699 13.7432C15.9425 15.7024 15.2771 17.6175 14.0054 19.1096L8.12757 24.9875C6.95216 24.2039 4.99315 22.6367 5.77675 21.0687C7.34397 19.1096 9.30131 17.5441 10.871 15.5826C12.0464 14.0154 11.2628 10.8802 8.91197 10.4884C8.38451 10.304 7.81845 10.2581 7.26811 10.3552C6.71779 10.4522 6.2016 10.6889 5.76898 11.0427C5.33636 11.3964 5.00181 11.8553 4.79736 12.3754C4.59292 12.8954 4.52543 13.4593 4.60134 14.0129C4.60134 15.9719 6.16856 17.1473 7.34397 18.3236C6.16856 19.499 4.60134 20.2826 4.60134 21.8482C3.42593 20.2809 1.46692 19.1055 0.682494 17.1457C-0.03392 15.5418 -0.191649 13.7439 0.234543 12.0397C0.660735 10.3356 1.64621 8.8236 3.03331 7.74573Z" fill="black"/>
<path fill-rule="evenodd" clip-rule="evenodd" d="M28.1123 7.74595C28.5041 6.57054 29.6795 6.96235 30.4631 6.96235V21.4566H28.1123V20.2845C27.1689 21.0451 25.9934 21.46 24.7816 21.46C23.5697 21.46 22.3943 21.0451 21.4508 20.2845C20.3657 19.2936 19.7157 17.9143 19.6423 16.4467C19.5689 14.979 20.0781 13.5417 21.059 12.4476C21.9411 11.4875 23.141 10.8792 24.4368 10.7352C25.7326 10.5911 27.0368 10.9211 28.1082 11.664L28.1123 7.74595ZM24.5877 12.8402C22.6287 13.232 21.0631 15.9746 22.6287 17.9345C22.9214 18.3615 23.3213 18.704 23.7883 18.9275C24.2552 19.1511 24.7727 19.2479 25.2889 19.2082C25.8051 19.1685 26.3017 18.9937 26.7289 18.7013C27.1562 18.4091 27.499 18.0094 27.7229 17.5427C28.8959 15.5828 26.9361 12.8394 24.5852 12.8394L24.5877 12.8402Z" fill="black"/>
<path fill-rule="evenodd" clip-rule="evenodd" d="M32.4219 10.8801H34.7727V11.6637C35.5563 10.4883 37.1235 10.4883 38.6916 10.8801C38.2998 11.6637 37.9079 12.0555 37.9079 12.8391C36.3407 12.4473 34.7735 13.2309 34.7735 14.4063V20.2842C34.3809 21.4637 33.2055 21.4637 32.4219 21.4637V10.8801Z" fill="black"/>
<path fill-rule="evenodd" clip-rule="evenodd" d="M42.2183 10.8812C46.1371 9.31396 50.0552 13.232 49.2675 17.1509C48.4798 21.0697 42.9978 23.0287 40.2511 20.2853C37.1166 17.5427 38.292 11.6648 42.2101 10.8812H42.2183ZM43.3937 12.8402C42.7357 13.0157 42.1357 13.3617 41.6541 13.8433C41.1725 14.3248 40.8266 14.9248 40.6511 15.5828C40.5707 16.0299 40.5928 16.4894 40.7159 16.9266C40.839 17.3639 41.0598 17.7674 41.3617 18.1068C41.6635 18.4463 42.0386 18.7127 42.4584 18.886C42.8783 19.0594 43.332 19.135 43.7855 19.1074C45.3527 19.1074 46.9199 17.932 46.9199 16.3648C46.9199 14.4074 44.9617 12.4484 43.3953 12.8402H43.3937Z" fill="black"/>
<path fill-rule="evenodd" clip-rule="evenodd" d="M50.8389 10.8799H53.1897V11.6635C54.2612 10.9206 55.5652 10.5907 56.8611 10.7347C58.1569 10.8788 59.3568 11.487 60.2389 12.4471C60.7233 12.9506 61.0993 13.5481 61.3437 14.2027C61.588 14.8573 61.6956 15.555 61.6596 16.2527C61.6236 16.9505 61.445 17.6335 61.1346 18.2595C60.8243 18.8855 60.3889 19.4412 59.8552 19.8922C58.288 21.8512 55.1528 21.8512 53.1938 20.6758V24.2004C52.802 25.3758 51.6266 25.3758 50.843 25.3758V10.8799H50.8389ZM55.9331 12.8389C53.5823 13.2307 52.4085 15.9734 53.5823 17.5414C54.7577 19.5004 57.893 19.5004 58.6766 17.5414C60.243 15.5816 58.2839 12.8389 55.9331 12.8389Z" fill="black"/>
<path fill-rule="evenodd" clip-rule="evenodd" d="M65.7289 11.2727C66.7207 10.7166 67.8644 10.4926 68.9926 10.6336C70.1208 10.7746 71.1743 11.2732 71.9986 12.0563C71.6068 12.4481 71.215 13.2317 70.4314 13.6235C70.0661 13.3276 69.6371 13.1207 69.1781 13.019C68.7192 12.9174 68.2429 12.9238 67.7869 13.0378C67.3308 13.1518 66.9075 13.3702 66.5503 13.6758C66.1932 13.9815 65.912 14.366 65.7289 14.7989C65.5586 15.2629 65.4976 15.7599 65.5506 16.2514C65.6036 16.7428 65.7692 17.2153 66.0345 17.6324C66.2998 18.0493 66.6577 18.3996 67.0804 18.6558C67.503 18.9119 67.9791 19.0673 68.4716 19.1096C69.2552 19.1096 70.0388 18.7178 70.8224 18.7178C71.5223 19.026 72.0814 19.5851 72.3896 20.285C69.647 22.6358 64.9445 21.8522 63.7691 18.326C62.2019 15.9743 63.3773 12.8383 65.7289 11.2727Z" fill="black"/>
<path fill-rule="evenodd" clip-rule="evenodd" d="M72.3907 17.9336C71.217 14.4074 73.958 10.4885 77.485 10.4885C78.8957 10.5501 80.2442 11.0869 81.3113 12.0118C82.3787 12.9366 83.1016 14.1951 83.3631 15.5828V21.4607C82.1877 21.4607 81.4039 21.4607 80.6202 20.6771C77.8776 22.6361 73.5711 21.0689 72.3916 17.9345L72.3907 17.9336ZM77.485 12.8393C76.9453 12.9409 76.4378 13.17 76.0048 13.5076C75.5717 13.8453 75.2257 14.2816 74.9957 14.7801C74.7656 15.2787 74.6581 15.8251 74.6822 16.3737C74.7063 16.9223 74.8612 17.4571 75.1342 17.9336C76.7014 19.8927 79.8366 19.5009 80.6202 17.5418C80.8209 17.0251 80.8943 16.4677 80.834 15.9167C80.7739 15.3656 80.5819 14.8372 80.2744 14.3759C79.9669 13.9148 79.553 13.5344 79.0674 13.2669C78.5819 12.9994 78.0391 12.8528 77.485 12.8393Z" fill="black"/>
<path fill-rule="evenodd" clip-rule="evenodd" d="M84.9303 10.8811H87.2812V11.6647C88.4566 10.0975 91.2 10.4893 92.7672 12.0565C94.7262 9.70569 98.6451 10.4893 99.4287 13.2319C99.8205 15.5828 99.4287 18.3262 99.4287 20.677C99.4287 21.4606 98.2533 21.4606 97.0779 21.4606C97.0779 19.1098 97.4697 16.7582 97.0779 14.4114C97.0016 14 96.7836 13.6284 96.4615 13.361C96.1393 13.0936 95.7344 12.9472 95.3156 12.9472C94.8975 12.9472 94.4918 13.0936 94.1705 13.361C93.8484 13.6284 93.6303 14 93.5533 14.4114V21.4606H91.2025C91.2672 18.9725 91.1369 16.4831 90.8107 14.0155C90.4189 12.4483 87.6762 12.8401 87.6762 14.4073C87.3508 16.7422 87.2197 19.1 87.2844 21.4565H84.9303V10.8811Z" fill="black"/>
</g>
</g>
</g>
</g>
<defs>
<clipPath id="clip0_1_347">
<rect width="100" height="30" fill="white" transform="translate(0 0.75)"/>
</clipPath>
<clipPath id="clip1_1_347">
<rect width="100" height="19.6721" fill="white" transform="translate(0 5.91382)"/>
</clipPath>
</defs>
</svg>
