<svg width="100" height="31" viewBox="0 0 100 31" fill="none" xmlns="http://www.w3.org/2000/svg">
<g clip-path="url(#clip0_1_318)">
<g clip-path="url(#clip1_1_318)">
<g clip-path="url(#clip2_1_318)">
<mask id="mask0_1_318" style="mask-type:luminance" maskUnits="userSpaceOnUse" x="1" y="0" width="97" height="30">
<path d="M97.8765 0.75H1.53845V29.7554H97.8765V0.75Z" fill="white"/>
</mask>
<g mask="url(#mask0_1_318)">
<g opacity="0.4">
<path fill-rule="evenodd" clip-rule="evenodd" d="M61.3085 23.4345C55.732 27.5572 47.6216 29.7542 40.6258 29.7542C31.2943 29.8005 22.2807 26.3661 15.3462 20.1218C14.8397 19.6488 15.2781 19.0061 15.9231 19.3788C22.6384 23.2433 30.157 25.5013 37.8903 25.9761C45.6237 26.4509 53.362 25.1297 60.4997 22.1157C61.4435 21.7453 62.2212 22.763 61.3085 23.4345Z" fill="black"/>
<path fill-rule="evenodd" clip-rule="evenodd" d="M63.6389 20.7648C62.9293 19.8521 58.9082 20.3252 57.1162 20.5617C56.5751 20.6298 56.4735 20.1566 56.9812 19.8185C60.1924 17.5547 65.4297 18.2298 66.0389 18.974C66.6482 19.7182 65.8705 24.9902 62.8624 27.4906C62.3893 27.8621 61.9496 27.6589 62.1527 27.1524C62.8277 25.4631 64.3485 21.7109 63.6389 20.7648Z" fill="black"/>
<path fill-rule="evenodd" clip-rule="evenodd" d="M57.2183 3.93448V1.74218C57.2144 1.67011 57.2258 1.59804 57.2517 1.53066C57.2775 1.46327 57.3172 1.40207 57.3683 1.35104C57.4193 1.3 57.4805 1.26026 57.5479 1.23441C57.6153 1.20857 57.6874 1.19721 57.7595 1.20103H67.5568C67.7047 1.19728 67.8483 1.25194 67.9563 1.35322C68.0643 1.4545 68.128 1.59425 68.1337 1.74218V3.60101C68.1337 3.90563 67.8637 4.31065 67.3906 4.98565L62.3217 12.218C64.2534 12.1139 66.1784 12.5206 67.903 13.3972C68.0526 13.4828 68.1778 13.6055 68.2664 13.7533C68.3551 13.9013 68.4044 14.0694 68.4094 14.2418V16.5737C68.4094 16.9118 68.0714 17.2833 67.6999 17.0802C66.1008 16.2526 64.3253 15.8233 62.5248 15.8292C60.7242 15.835 58.9516 16.2757 57.3578 17.1137C57.2772 17.1425 57.1908 17.1515 57.106 17.1398C57.0211 17.1279 56.9404 17.0958 56.8707 17.046C56.8009 16.9962 56.7443 16.9303 56.7056 16.854C56.6668 16.7775 56.6472 16.6929 56.6483 16.6072V14.3733C56.6151 13.8511 56.7449 13.3313 57.0198 12.886L62.9045 4.47101H57.8009C57.653 4.47476 57.5095 4.4201 57.4015 4.31883C57.2935 4.21754 57.2298 4.0778 57.224 3.92987L57.2183 3.93448ZM21.4964 17.5498H18.5183C18.385 17.5366 18.2598 17.4797 18.162 17.3882C18.0642 17.2966 17.9992 17.1754 17.9772 17.0433V1.77218C17.9828 1.62425 18.0466 1.4845 18.1545 1.38322C18.2625 1.28194 18.4061 1.22728 18.5541 1.23103H21.3233C21.4604 1.2329 21.5918 1.28583 21.6919 1.37952C21.792 1.47321 21.8535 1.6009 21.8645 1.73756V3.73141H21.9326C22.1956 2.9072 22.714 2.18798 23.4126 1.67763C24.1113 1.16729 24.954 0.892251 25.8193 0.892251C26.6845 0.892251 27.5272 1.16729 28.2259 1.67763C28.9245 2.18798 29.4428 2.9072 29.706 3.73141C30.0025 2.88167 30.562 2.14846 31.3032 1.63809C32.0445 1.12772 32.9291 0.866735 33.8286 0.892956C34.4965 0.879482 35.1578 1.02586 35.7576 1.31991C36.3573 1.61396 36.8781 2.04715 37.2764 2.58334C38.2226 3.86757 38.0195 5.72641 38.0195 7.38217V17.0479C38.0137 17.1958 37.95 17.3356 37.842 17.4369C37.734 17.5382 37.5905 17.5929 37.4426 17.5891H34.5025C34.3618 17.5807 34.229 17.5209 34.1293 17.4212C34.0296 17.3215 33.9698 17.1887 33.9614 17.0479V8.93755C34.0066 7.97945 33.9839 7.01936 33.8932 6.06448C33.8313 5.65801 33.6121 5.29211 33.2831 5.04565C32.9539 4.79919 32.5411 4.69188 32.1337 4.7468C31.7457 4.75799 31.3695 4.88233 31.0514 5.10455C30.7332 5.32678 30.487 5.63718 30.343 5.99755C30.098 6.95711 30.0068 7.94944 30.073 8.93755V17.0479C30.0672 17.1958 30.0035 17.3356 29.8955 17.4369C29.7875 17.5382 29.644 17.5929 29.496 17.5891H26.5225C26.3818 17.5807 26.249 17.5209 26.1493 17.4212C26.0496 17.3215 25.9898 17.1887 25.9814 17.0479V8.93755C25.9814 7.24716 26.2514 4.71334 24.156 4.71334C22.0272 4.71334 22.0941 7.14678 22.0941 8.93755V17.0479C22.0729 17.1924 21.999 17.324 21.8869 17.4175C21.7746 17.511 21.6319 17.5598 21.486 17.5545L21.4964 17.5498ZM76.5832 0.888343C81.0105 0.888343 83.4106 4.67296 83.4106 9.50642C83.4106 14.1702 80.7741 17.8879 76.5832 17.8879C72.2575 17.8879 69.891 14.1033 69.891 9.37141C69.8576 4.60602 72.2563 0.888343 76.5832 0.888343ZM76.5832 4.03142C74.3909 4.03142 74.2514 7.03948 74.2514 8.89833C74.2514 10.7572 74.218 14.7448 76.5499 14.7448C78.8483 14.7448 78.9833 11.5337 78.9833 9.57448C79.0248 8.20874 78.8768 6.84385 78.5437 5.51873C78.4513 5.07617 78.2016 4.68204 77.841 4.40943C77.4803 4.13681 77.0331 4.00416 76.5822 4.03603L76.5832 4.03142ZM89.121 17.5498H86.1476C86.0068 17.5414 85.874 17.4817 85.7743 17.382C85.6746 17.2823 85.6148 17.1495 85.6064 17.0087V1.70411C85.6251 1.56421 85.6938 1.43578 85.7999 1.34266C85.906 1.24953 86.0421 1.19798 86.1833 1.19754H88.9526C89.0783 1.20175 89.1993 1.24702 89.297 1.32639C89.3947 1.40576 89.4638 1.51489 89.4937 1.63717V3.96909H89.5617C90.4064 1.87371 91.5555 0.894082 93.6175 0.894082C94.3035 0.862912 94.9858 1.01181 95.5965 1.32596C96.2073 1.64012 96.7251 2.10859 97.0986 2.68486C97.8764 3.90216 97.8764 5.96293 97.8764 7.45024V17.0825C97.856 17.2189 97.7856 17.3427 97.679 17.4302C97.5724 17.5177 97.4371 17.5623 97.2995 17.5556H94.3259C94.1976 17.5435 94.0762 17.4913 93.9791 17.4064C93.882 17.3215 93.8141 17.2082 93.7849 17.0825V8.7691C93.7849 7.07987 93.988 4.64641 91.926 4.64641C91.5526 4.66383 91.1921 4.78754 90.8866 5.003C90.5812 5.21846 90.3438 5.51666 90.2022 5.86255C89.8406 6.78702 89.6794 7.77769 89.7291 8.7691V17.0156C89.7103 17.1641 89.6384 17.3008 89.5266 17.4004C89.4148 17.4999 89.2707 17.5555 89.121 17.5568V17.5498ZM49.4114 10.2495C49.5218 11.3378 49.3348 12.4357 48.8703 13.426C48.6817 13.8174 48.3903 14.1502 48.0269 14.3883C47.6637 14.6266 47.2424 14.7615 46.8083 14.7783C45.6545 14.7783 44.983 13.8991 44.983 12.6148C44.983 10.0764 47.2468 9.6068 49.4103 9.6068L49.4114 10.2495ZM52.4194 17.5187C52.3231 17.6028 52.2029 17.6546 52.0755 17.6668C51.9483 17.6791 51.8204 17.651 51.7099 17.5868C51.0215 17.0297 50.4378 16.3546 49.986 15.5929C49.3968 16.3134 48.646 16.8848 47.7944 17.2606C46.943 17.6365 46.0149 17.8063 45.0856 17.7564C44.4757 17.7922 43.8655 17.6956 43.2965 17.4731C42.7275 17.2507 42.2135 16.9076 41.7897 16.4677C41.3659 16.0278 41.0423 15.5013 40.8412 14.9245C40.6401 14.3476 40.5663 13.7341 40.6248 13.126C40.5898 12.0866 40.8759 11.0617 41.4443 10.1908C42.0128 9.31996 42.8358 8.64543 43.8014 8.25911C45.6153 7.65747 47.5025 7.30499 49.4114 7.21139V6.83987C49.5124 6.09768 49.3827 5.34237 49.0398 4.67641C48.8456 4.42448 48.594 4.22248 48.306 4.08723C48.018 3.95198 47.702 3.88735 47.384 3.8987C46.834 3.8507 46.2854 4.00668 45.8429 4.33689C45.4003 4.66711 45.0946 5.14849 44.984 5.68947C44.9159 5.95947 44.7533 6.23063 44.4776 6.23063L41.6044 5.92603C41.535 5.91628 41.4683 5.89262 41.4083 5.85646C41.3483 5.82029 41.2962 5.77239 41.2551 5.71561C41.2141 5.65881 41.185 5.59431 41.1694 5.52598C41.1539 5.45765 41.1523 5.3869 41.1648 5.31794C41.8409 1.80333 44.9841 0.755626 47.8226 0.755626C49.4538 0.685873 51.0541 1.21484 52.3224 2.24293C53.7751 3.59524 53.6403 5.41947 53.6403 7.37986V12.0102C53.6592 13.0391 54.0563 14.025 54.756 14.7795C54.9591 15.0495 54.9926 15.3875 54.756 15.5572C54.1087 16.0672 53.0251 17.0133 52.4194 17.5187ZM10.3779 10.2495C10.4884 11.3378 10.3013 12.4357 9.83674 13.426C9.64826 13.8174 9.35674 14.1502 8.99347 14.3883C8.63021 14.6266 8.20893 14.7615 7.77483 14.7783C6.62098 14.7783 5.94944 13.8991 5.94944 12.6148C5.94944 10.0764 8.21328 9.6068 10.3767 9.6068L10.3779 10.2495ZM13.3526 17.5187C13.2562 17.6028 13.136 17.6546 13.0087 17.6668C12.8814 17.6791 12.7535 17.651 12.6429 17.5868C11.9545 17.0297 11.3708 16.3546 10.919 15.5929C10.3298 16.3134 9.57897 16.8848 8.72755 17.2606C7.87611 17.6365 6.94805 17.8063 6.01868 17.7564C5.40884 17.7922 4.79849 17.6956 4.22956 17.4731C3.66062 17.2507 3.14658 16.9076 2.72276 16.4677C2.29893 16.0278 1.97537 15.5013 1.77429 14.9245C1.57321 14.3476 1.4994 13.7341 1.55791 13.126C1.52287 12.0866 1.80904 11.0617 2.37745 10.1908C2.94586 9.31996 3.76888 8.64543 4.73443 8.25911C6.54837 7.65747 8.43563 7.30499 10.3444 7.21139V6.83987C10.4455 6.09768 10.3158 5.34237 9.97291 4.67641C9.77863 4.42448 9.52706 4.22248 9.23909 4.08723C8.95113 3.95198 8.63507 3.88735 8.31712 3.8987C7.76704 3.8507 7.21852 4.00668 6.77598 4.33689C6.33342 4.66711 6.02774 5.14849 5.91714 5.68947C5.84906 5.95947 5.68059 6.23063 5.41059 6.23063L2.53752 5.92603C2.46813 5.91628 2.40143 5.89262 2.34141 5.85646C2.28139 5.82029 2.22929 5.77239 2.18823 5.71561C2.14718 5.65881 2.11801 5.59431 2.10249 5.52598C2.08697 5.45765 2.0854 5.3869 2.09789 5.31794C2.77405 1.80333 5.91713 0.755626 8.75559 0.755626C10.3868 0.685873 11.9872 1.21484 13.2556 2.24293C14.7083 3.59524 14.5733 5.41947 14.5733 7.37986V12.0102C14.5924 13.039 14.9895 14.0248 15.6891 14.7795C15.8922 15.0495 15.9256 15.3875 15.6891 15.5572C15.0464 16.0637 13.9653 17.0098 13.3572 17.5187H13.3526Z" fill="black"/>
</g>
</g>
</g>
</g>
</g>
<defs>
<clipPath id="clip0_1_318">
<rect width="100" height="30" fill="white" transform="translate(0 0.75)"/>
</clipPath>
<clipPath id="clip1_1_318">
<rect width="100" height="30" fill="white" transform="translate(0 0.75)"/>
</clipPath>
<clipPath id="clip2_1_318">
<rect width="96.9231" height="30" fill="white" transform="translate(1.53845 0.75)"/>
</clipPath>
</defs>
</svg>
