<svg xmlns="http://www.w3.org/2000/svg" width="60" height="59.97" viewBox="0 0 60 59.97">
  <path id="Path_1" data-name="Path 1" d="M71.707,38.957,46.975,14.307c-2.27-2.352-2.838-.892-2.838.243V25.9L25.73,39.525H14.621c-3.162,0-.649,3.406-1.135,2.838L27.433,56.229,15.756,67.987a1.663,1.663,0,1,0,2.352,2.352L29.784,58.662,43.65,72.609c-.405-.405,2.919,1.784,2.919-1.135V60.283L60.192,41.877h10.3c1.7-.081,3.973-.081,1.216-2.919Zm-53.112,3.73h7.217l17.6,17.6V67.5L18.594,42.687ZM44.948,57.04,28.973,41.066l16.3-11.839L56.949,41.066l-12,15.974ZM59.381,38.633l-12-12V19.415L66.6,38.633H59.381Z" transform="translate(-12.995 -13.049)" fill="#72aa1b"/>
</svg>
