<svg width="1920" height="84" viewBox="0 0 1920 84" fill="none" xmlns="http://www.w3.org/2000/svg">
<path d="M1922.5 17.8963C1921.48 26.1494 1886.73 25.7401 1880.89 25.6378C1866.08 23.2506 1849.4 27.9228 1835.06 24.2396C1824.44 21.2726 1815.05 17.5553 1804 17.8963C1794.75 24.8875 1784.72 16.5322 1775.85 19.0218C1769.7 20.3518 1763.86 26.3199 1757.58 23.7962C1755.45 24.2055 1754.77 24.0009 1752.89 24.8875C1751.65 24.6147 1751.06 23.8986 1749.48 27.5476C1745.34 24.376 1735.53 27.7522 1731.26 27.684C1725.2 28.9118 1720.47 27.8545 1715.09 24.717C1709.8 22.1252 1707.45 17.0097 1700.8 21.7841C1696.4 18.2033 1679.55 18.6466 1675.2 22.5344C1672.77 27.8886 1674.17 26.1153 1673.06 27.8204C1671.7 29.4233 1668.76 29.5949 1665.68 29.3562C1657.15 33.8919 1642.56 34.6422 1633 30.4475C1620.25 34.0284 1604.97 36.7566 1592.51 31.0273C1588.25 31.1978 1588.03 29.1175 1583.55 23.4222C1580.18 16.9426 1576.13 26.8655 1572.5 25.706C1566.36 26.3199 1555.44 25.4673 1549.98 24.9216C1544.56 20.8974 1544.26 21.9547 1537.69 19.8402C1523.78 17.8281 1509.61 20.4882 1496.39 18.3738C1487.68 16.3958 1477.1 20.0108 1468.1 17.9305C1456.75 6.4035 1440.07 34.2396 1431.45 24.0427C1428.34 20.7346 1426.59 15.1417 1422.15 18.4497C1419.55 19.2682 1417.03 16.233 1414.43 15.244C1404.62 14.3573 1399.11 21.8941 1389.77 18.3133C1385.29 25.0658 1380.72 20.0185 1376.24 18.211C1370.27 16.6763 1362.21 17.7676 1356.45 17.8699C1352.01 14.0504 1349.49 16.1307 1344.5 12.7885C1340.57 10.8105 1336.65 14.4596 1332.68 12.3793C1321.42 11.7313 1309.73 19.7115 1298.25 14.4255C1288.91 10.8446 1278.84 8.01406 1269.11 8.73023C1270.48 18.7566 1234.34 7.12737 1226.7 14.3573C1214.97 19.3023 1203.53 9.92385 1192.01 9.95795C1182.16 0.818238 1172.69 12.0042 1162.53 8.49151C1155.28 6.75223 1150.5 6.82044 1144.02 10.4354C1140.35 13.266 1142.35 12.6862 1138.21 12.4134C1137.06 21.4849 1134.89 13.5047 1133.56 12.3793C1127.29 16.7445 1120.04 10.0944 1113.89 12.5157C1109.41 9.68513 1105.92 11.7313 1102.12 7.50251C1095.21 9.07127 1088.12 3.78524 1079.98 2.65982C1068.5 2.86444 1057.06 5.14937 1046.27 1.09107C1037.23 -2.48979 1027.24 4.16037 1018.41 4.56962C1013.59 8.28689 1012.44 6.17248 1008.38 7.33199C1006.12 6.75223 1004.33 12.5157 1001.77 8.55971C995.669 6.51351 989.44 5.66092 983.296 8.4574C977.409 14.3232 971.137 5.83144 965.292 8.25278C958.508 -1.94414 952.961 11.8336 946.391 12.4475C934.359 10.299 921.347 8.76433 909.187 12.3452C904.28 11.1516 898.35 12.7885 893.614 12.7544C888.494 12.8567 887.897 16.9492 883.972 19.3705C875.865 25.3045 861.53 14.9371 852.4 20.0526C847.792 17.563 845.232 25.2363 840.197 22.0647C831.622 24.486 832.432 23.0537 826.032 27.112C818.907 33.6939 804.742 28.4761 797.489 26.464C791.772 20.2572 789.084 23.5652 786.482 21.6554C783.794 20.8369 783.581 17.0856 778.546 13.1978C774.322 12.4816 770.866 4.53551 765.149 6.47941C758.664 2.76213 754.44 8.3892 749.534 8.32099C741.769 15.3804 729.95 9.4123 721.759 8.49151C710.452 6.54761 699.146 9.71923 687.797 8.49151C679.776 12.6521 671.755 8.76433 663.734 8.49151C659.254 9.00306 650.977 6.64992 651.148 12.0724C642.956 14.9712 633.442 13.4024 625.079 12.6862C624.439 16.7445 625.805 20.7346 624.781 21.7577C616.93 18.6543 609.506 28.5102 601.357 26.0889C595.64 27.112 589.838 20.871 584.121 25.9866C571.065 27.6235 557.967 22.8831 544.911 25.9866C539.749 26.6345 536.421 26.8732 531.984 28.101C525.243 30.3518 521.019 36.2517 513.126 31.8182C505.915 33.2165 498.748 29.8061 491.75 30.8292C483.26 30.761 486.076 33.6939 480.06 33.8985C475.794 38.5707 467.133 31.5454 462.525 33.7621C454.589 26.9415 446.525 37.8545 438.59 33.7962C431.763 31.6818 431.294 32.1252 426.131 28.0328C420.926 30.8633 413.545 25.9866 407.273 24.0427C400.404 20.2572 394.901 25.3386 388.031 21.6895C383.424 22.8831 381.632 16.574 377.066 21.4508C373.824 21.0416 372.544 22.9514 369.771 26.6686C366.741 34.2737 365.675 30.3177 361.792 27.9987C357.27 29.7379 352.705 26.0889 348.139 27.9646C343.02 23.9745 337.9 33.4552 332.78 27.9646C327.831 30.8292 320.151 27.6576 315.714 27.7599C311.49 25.9866 308.759 27.0779 304.28 32.3639C298.989 34.6488 296.6 38.7753 290.968 32.398C279.747 27.9305 272.921 25.6455 259.566 22.0988C250.564 24.4178 241.562 18.8248 232.517 22.0988C224.709 23.8721 218.693 15.0735 211.184 20.1208C205.126 19.4728 198.769 21.2121 192.497 20.0867C186.481 20.9393 180.465 24.3837 174.492 20.1208C170.481 20.2231 163.996 22.2693 160.54 18.2792C150.983 10.4354 144.84 9.61692 134.045 8.4233C128.67 7.94585 123.208 4.09217 117.961 7.97996C113.694 11.7995 109.385 6.4453 105.033 4.4332C94.6227 1.53441 82.0791 3.27369 75.85 10.3331C67.9143 18.9613 57.0773 18.5179 44.2778 18.1428C38.1766 14.8006 33.2275 20.2572 27.425 20.1208C26.0171 16.4717 23.6705 18.3133 22.4332 19.9162C20.0866 20.2231 20.5133 20.5982 18.7213 22.7467C9.20697 28.4761 -0.563363 29.5333 -8.88308 20.0867C-8.88308 20.2913 -11.9123 32.7049 -14.9415 40.4805C-17.9708 50.0977 -21 60.0218 -21 60.9085C-13.7469 57.123 -6.53649 49.7566 1.14324 49.0064C5.45243 50.4728 15.1801 45.5278 19.4466 49.1087C26.2304 50.1659 30.5396 56.2363 36.7687 52.0075C43.3391 54.838 49.9949 56.7137 56.3947 51.7687C63.3491 49.4497 68.085 36.5927 75.6794 43.3452C86.9003 43.1747 93.8121 42.1857 102.686 35.9448C111.859 29.6015 126.11 36.1835 136.52 40.2418C146.034 41.2308 156.103 46.2781 166.044 41.1626C176.028 43.2088 185.884 42.5267 194.971 44.1296C205.595 51.7005 215.963 55.145 228.08 52.6895C239.13 50.9503 248.857 47.0625 260.206 53.1329C265.454 47.4717 269.422 52.86 274.67 54.9062C286.19 56.5432 296.728 58.2825 307.693 61.0108C316.482 63.1593 321.388 73.1857 329.751 72.2649C335.98 81.7115 343.062 68.1384 349.419 72.3672C355.99 69.673 360.982 73.4244 367.851 76.6642C373.696 71.5487 379.968 78.6081 385.855 76.4596C397.247 77.1417 414.1 79.2561 424.211 74.1406C427.411 76.7665 429.331 76.3914 433.043 68.991C437.566 69.0251 443.411 73.5608 448.104 68.7522C453.992 68.7522 456.338 61.7951 461.928 64.728C464.615 61.1813 467.09 64.4211 469.778 64.4552C470.973 64.3188 473.362 67.4563 475.282 60.3628C480.018 60.1241 486.503 63.8413 491.58 57.4981C495.804 55.0086 499.601 50.3364 503.995 55.6224C509.201 59.8512 510.609 65.6488 516.88 62.8182C520.763 61.9998 523.152 60.2946 525.925 56.8501C532.112 49.1769 541.199 56.0999 548.623 55.0427C563.385 52.3485 578.276 48.8358 593.038 55.0427C596.792 53.8831 599.736 55.3155 603.32 54.2924C608.738 49.211 608.44 51.871 614.498 49.0064C624.653 49.5179 635.319 55.6906 645.687 51.2231C651.404 44.1637 656.225 50.6092 662.027 49.1769C665.526 52.0416 669.963 51.7005 673.163 48.563C677.174 45.3573 675.424 43.1065 677.643 39.7643C681.483 36.1494 695.05 35.3309 702.133 37.5817C708.447 44.8116 714.762 41.7423 721.119 37.5476C730.334 34.5124 737.161 36.4904 744.883 41.8446C749.448 52.7236 751.582 44.7434 756.445 47.3353C760.968 45.1527 763.954 52.9624 768.008 51.7005C775.005 56.3727 783.965 51.4277 793.223 57.5663C802.524 59.4761 812.166 62.1703 820.571 57.0207C831.067 58.6576 841.776 55.7929 851.802 55.0768C856.879 49.5179 856.623 51.0526 862.17 53.2352C867.546 52.2803 869.85 51.6323 874.287 49.5861C881.711 56.3727 891.14 54.4288 898.947 49.2451C906.456 51.5641 914.093 49.5179 921.56 49.1428C931.629 46.4145 942.594 52.0757 953.516 52.9624C964.438 48.4607 975.275 46.2781 985.174 49.2792C988.246 45.1186 990.336 47.6081 993.067 43.8567C993.664 47.1989 997.973 40.5487 998.315 39.8666C1004.46 35.6378 1010.39 41.5036 1016.06 41.299C1023.74 43.2088 1030.01 37.6158 1036.93 45.3573C1042.05 47.1648 1047.08 49.8248 1053.48 54.7357C1060.52 55.486 1066.62 54.7357 1072.89 52.5531C1079.29 52.1098 1082.49 52.2803 1087.66 56.3386C1090.68 61.2836 1090.68 63.0911 1095.08 58.3848C1099.6 61.5905 1104.21 47.5058 1108.69 50.9844C1114.83 47.9151 1122.26 50.7797 1128.96 49.6543C1138.04 51.4959 1147.43 59.4761 1156.9 51.4959C1166.37 49.5179 1175.89 53.9172 1185.15 51.1549C1188.9 56.6796 1196.92 46.2099 1200.04 50.9503C1203.15 48.6994 1202.98 48.6653 1206.22 43.1065C1209.46 33.9668 1216.08 34.1032 1220.09 41.2649C1225.68 41.3672 1229.18 41.299 1235.11 43.3452C1242.06 50.8138 1249.23 43.7544 1256.14 43.5498C1263.27 44.1296 1267.66 43.1065 1274.32 39.7643C1284.17 36.2176 1289.85 41.6059 1297.35 45.8688C1301.79 51.1208 1302.43 48.2902 1307.59 50.0636C1310.97 54.4629 1313.82 50.2682 1317.28 54.6334C1323.21 52.8259 1330.93 59.8853 1337.16 54.9745C1343.31 56.7819 1347.02 53.6103 1352.48 52.86C1356.36 53.9514 1358.45 48.6312 1361.44 55.4178C1366.3 62.409 1366.34 50.3364 1372.19 58.9646C1379.53 52.4849 1387.25 58.9646 1394.63 58.8964C1398.34 62.6136 1402.61 57.464 1406.28 58.9646C1412.12 59.6466 1409.39 57.7027 1413.96 55.4178C1419.46 50.5069 1424.8 46.0735 1431.92 53.0306C1437.17 48.7676 1442.42 51.4277 1447.66 53.0306C1451.76 53.9855 1456.07 52.5872 1460.08 53.3716C1463.88 50.8479 1467.55 55.7929 1471.6 57.4981C1475.61 62.2726 1479.92 56.6114 1483.93 59.5784C1491.1 57.6345 1496.47 65.8534 1503.6 68.2407C1510.72 77.1076 1518.62 68.5817 1525.91 68.8886C1531.67 72.9128 1535.9 58.9338 1541.7 65.0724C1545.28 55.6257 1548.82 67.1527 1552.24 66.3683C1554.46 65.9249 1556.84 74.3485 1559.36 69.5399C1561.54 72.3705 1564.14 64.1857 1566.4 69.233C1573.44 68.5168 1575.7 69.0625 1581.04 75.2352C1592.34 80.7599 1605.57 88.0922 1619.56 80.9987C1626.86 82.2946 1634.11 80.5212 1641.41 80.9987C1651.35 84.4772 1661.29 79.8391 1671.19 80.9305C1681.13 83.9657 1691.07 80.9987 1700.97 80.9646C1706.86 79.5663 1710.87 77.4178 1716.2 78.9866C1720.25 77.4519 1724.86 82.1241 1728.96 79.1571C1736.51 81.1351 1747 82.8061 1753.32 73.5982C1756.09 70.2902 1756.86 66.266 1759.25 68.9943C1760.78 71.1428 1762.32 69.1307 1763.81 65.3793C1766.37 60.4684 1767.53 57.5014 1767.18 59.3771C1775.25 52.9315 1797.6 67.8314 1810.06 64.2506C1819.07 63.0229 1827.94 60.6697 1837.58 62.8864C1842.96 65.8876 1845.73 60.1241 1850.64 59.1692C1857.63 58.0097 1866.21 61.8633 1873.34 58.8281C1883.15 57.2253 1892.83 63.1252 1902.52 59.783C1912.2 59.5102 1921.89 57.8391 1931.74 60.772C1932 59.2374 1922.5 19.2946 1922.5 17.8963Z" fill="#F5F5F5"/>
</svg>
